# xmcd
#
# Track frame offsets:
#	150
#	12097
#	22617
#	32357
#	41755
#	58812
#	72235
#	82117
#	94207
#	106012
#	120685
#	131630
#	141372
#	150165
#	161160
#	171575
#	182972
#	193430
#	205405
#	214675
#
# Disc length: 2998 seconds
#
# Revision: 1
# Processed by: cddbd v1.4PL0 Copyright (c) Steve Scherf et al.
# Submitted via: CDmax 2.0
#
DISCID=1d0bb414
DTITLE=Roy Acuff - 20 Greatest Songs
DYEAR=2001
DGENRE=Country
TTITLE0=(Our Own) Jolé Blon
TTITLE1=Write Me, Sweetheart
TTITLE2=Waltz of the Wind
TTITLE3=I Saw the Light
TTITLE4=Will the Circle Be Unbroken
TTITLE5=As Long As I Live
TTITLE6=Branded Wherever I Go
TTITLE7=Great Speckled Bird
TTITLE8=Wabash Cannonball
TTITLE9=Precious Jewel
TTITLE10=Wreck on the Highway
TTITLE11=Fireball Mail
TTITLE12=Wait for the Light to Shine
TTITLE13=Unloved and Unclaimed
TTITLE14=This World Can't Stand Long
TTITLE15=Once More
TTITLE16=So Many Times
TTITLE17=Come and Knock (On My Door of My Heart)
TTITLE18=Freight Train Blues
TTITLE19=Back in the Country
EXTD=
EXTT0=
EXTT1=
EXTT2=
EXTT3=
EXTT4=
EXTT5=
EXTT6=
EXTT7=
EXTT8=
EXTT9=
EXTT10=
EXTT11=
EXTT12=
EXTT13=
EXTT14=
EXTT15=
EXTT16=
EXTT17=
EXTT18=
EXTT19=
PLAYORDER=
